<mxfile host="app.diagrams.net" modified="2021-06-10T07:04:06.367Z" agent="5.0 (Macintosh; Intel Mac OS X 10_13_6) AppleWebKit/537.36 (KHTML, like Gecko) Chrome/90.0.4430.212 Safari/537.36" etag="_3tAmG3rja8EuAb-zEog" version="14.7.7" type="github">
  <diagram id="Is7nYFCBdMyNHaLq8IZW" name="第 1 页">
    <mxGraphModel dx="946" dy="646" grid="1" gridSize="10" guides="1" tooltips="1" connect="1" arrows="1" fold="1" page="1" pageScale="1" pageWidth="827" pageHeight="1169" math="0" shadow="0">
      <root>
        <mxCell id="0" />
        <mxCell id="1" parent="0" />
        <mxCell id="1ueHQHKciYsmYRuD5N_B-18" value="" style="rounded=0;whiteSpace=wrap;html=1;comic=1;fontFamily=Comic Sans MS;fontSize=16;fillColor=#eeeeee;strokeColor=#36393d;" parent="1" vertex="1">
          <mxGeometry x="459" y="250" width="351" height="210" as="geometry" />
        </mxCell>
        <mxCell id="1ueHQHKciYsmYRuD5N_B-23" value="Meituan Adapter" style="rounded=0;whiteSpace=wrap;html=1;comic=1;fillColor=#dae8fc;strokeColor=#6c8ebf;fontSize=11;fontFamily=Comic Sans MS;" parent="1" vertex="1">
          <mxGeometry x="483.5" y="355" width="66.5" height="30" as="geometry" />
        </mxCell>
        <mxCell id="1ueHQHKciYsmYRuD5N_B-29" value="Map Interface" style="rounded=0;whiteSpace=wrap;html=1;comic=1;fillColor=#d5e8d4;strokeColor=#82b366;fontSize=11;fontFamily=Comic Sans MS;" parent="1" vertex="1">
          <mxGeometry x="483.5" y="290" width="306.5" height="45" as="geometry" />
        </mxCell>
        <mxCell id="1ueHQHKciYsmYRuD5N_B-31" value="打车" style="rounded=0;whiteSpace=wrap;html=1;comic=1;fillColor=#ffe6cc;strokeColor=#d79b00;fontSize=16;fontFamily=Comic Sans MS;" parent="1" vertex="1">
          <mxGeometry x="80" y="150" width="350" height="60" as="geometry" />
        </mxCell>
        <mxCell id="1ueHQHKciYsmYRuD5N_B-32" value="业务" style="text;html=1;strokeColor=none;fillColor=none;align=center;verticalAlign=middle;whiteSpace=wrap;rounded=0;comic=1;fontFamily=Comic Sans MS;fontSize=16;fontStyle=1" parent="1" vertex="1">
          <mxGeometry x="20" y="170" width="50" height="20" as="geometry" />
        </mxCell>
        <mxCell id="1ueHQHKciYsmYRuD5N_B-33" value="其他" style="rounded=0;whiteSpace=wrap;html=1;comic=1;fillColor=#ffe6cc;strokeColor=#d79b00;fontSize=16;fontFamily=Comic Sans MS;" parent="1" vertex="1">
          <mxGeometry x="460" y="150" width="350" height="60" as="geometry" />
        </mxCell>
        <mxCell id="1ueHQHKciYsmYRuD5N_B-34" value="Qcs" style="text;html=1;strokeColor=none;fillColor=none;align=center;verticalAlign=middle;whiteSpace=wrap;rounded=0;comic=1;fontFamily=Comic Sans MS;fontSize=16;fontStyle=1" parent="1" vertex="1">
          <mxGeometry x="20" y="330" width="50" height="20" as="geometry" />
        </mxCell>
        <mxCell id="KlWJ0E5zpvOS__4lGVaB-1" value="地图" style="text;html=1;strokeColor=none;fillColor=none;align=center;verticalAlign=middle;whiteSpace=wrap;rounded=0;comic=1;fontFamily=Comic Sans MS;fontSize=16;fontStyle=1" parent="1" vertex="1">
          <mxGeometry x="611.75" y="260" width="50" height="20" as="geometry" />
        </mxCell>
        <mxCell id="KlWJ0E5zpvOS__4lGVaB-6" value="Tencent Adapter" style="rounded=0;whiteSpace=wrap;html=1;comic=1;fillColor=#dae8fc;strokeColor=#6c8ebf;fontSize=11;fontFamily=Comic Sans MS;" parent="1" vertex="1">
          <mxGeometry x="560" y="355" width="66.5" height="30" as="geometry" />
        </mxCell>
        <mxCell id="KlWJ0E5zpvOS__4lGVaB-7" value="Amap Adapter" style="rounded=0;whiteSpace=wrap;html=1;comic=1;fillColor=#dae8fc;strokeColor=#6c8ebf;fontSize=11;fontFamily=Comic Sans MS;" parent="1" vertex="1">
          <mxGeometry x="639" y="355" width="66.5" height="30" as="geometry" />
        </mxCell>
        <mxCell id="KlWJ0E5zpvOS__4lGVaB-8" value="Baidu Adapter" style="rounded=0;whiteSpace=wrap;html=1;comic=1;fillColor=#dae8fc;strokeColor=#6c8ebf;fontSize=11;fontFamily=Comic Sans MS;" parent="1" vertex="1">
          <mxGeometry x="720" y="355" width="66.5" height="30" as="geometry" />
        </mxCell>
        <mxCell id="KlWJ0E5zpvOS__4lGVaB-9" value="Meituan&lt;br&gt;Map" style="rounded=0;whiteSpace=wrap;html=1;comic=1;fillColor=#f5f5f5;strokeColor=#666666;fontSize=11;fontFamily=Comic Sans MS;fontColor=#333333;" parent="1" vertex="1">
          <mxGeometry x="486.5" y="410" width="66.5" height="30" as="geometry" />
        </mxCell>
        <mxCell id="KlWJ0E5zpvOS__4lGVaB-10" value="Tencent&lt;br&gt;Map" style="rounded=0;whiteSpace=wrap;html=1;comic=1;fillColor=#f5f5f5;strokeColor=#666666;fontSize=11;fontFamily=Comic Sans MS;fontColor=#333333;" parent="1" vertex="1">
          <mxGeometry x="560" y="410" width="66.5" height="30" as="geometry" />
        </mxCell>
        <mxCell id="KlWJ0E5zpvOS__4lGVaB-11" value="Amap&lt;br&gt;Map" style="rounded=0;whiteSpace=wrap;html=1;comic=1;fillColor=#f5f5f5;strokeColor=#666666;fontSize=11;fontFamily=Comic Sans MS;fontColor=#333333;" parent="1" vertex="1">
          <mxGeometry x="641" y="410" width="66.5" height="30" as="geometry" />
        </mxCell>
        <mxCell id="KlWJ0E5zpvOS__4lGVaB-12" value="Baidu&lt;br&gt;Map" style="rounded=0;whiteSpace=wrap;html=1;comic=1;fillColor=#f5f5f5;strokeColor=#666666;fontSize=11;fontFamily=Comic Sans MS;fontColor=#333333;" parent="1" vertex="1">
          <mxGeometry x="720" y="410" width="66.5" height="30" as="geometry" />
        </mxCell>
        <mxCell id="KlWJ0E5zpvOS__4lGVaB-13" value="" style="rounded=0;whiteSpace=wrap;html=1;comic=1;fontFamily=Comic Sans MS;fontSize=16;fillColor=#eeeeee;strokeColor=#36393d;" parent="1" vertex="1">
          <mxGeometry x="80" y="250" width="351" height="210" as="geometry" />
        </mxCell>
        <mxCell id="KlWJ0E5zpvOS__4lGVaB-15" value="Navi Interface" style="rounded=0;whiteSpace=wrap;html=1;comic=1;fillColor=#d5e8d4;strokeColor=#82b366;fontSize=11;fontFamily=Comic Sans MS;" parent="1" vertex="1">
          <mxGeometry x="104.5" y="290" width="306.5" height="45" as="geometry" />
        </mxCell>
        <mxCell id="KlWJ0E5zpvOS__4lGVaB-16" value="Tencent Adapter" style="rounded=0;whiteSpace=wrap;html=1;comic=1;fillColor=#dae8fc;strokeColor=#6c8ebf;fontSize=11;fontFamily=Comic Sans MS;" parent="1" vertex="1">
          <mxGeometry x="104.5" y="355" width="95.5" height="30" as="geometry" />
        </mxCell>
        <mxCell id="KlWJ0E5zpvOS__4lGVaB-17" value="Amap Adapter" style="rounded=0;whiteSpace=wrap;html=1;comic=1;fillColor=#dae8fc;strokeColor=#6c8ebf;fontSize=11;fontFamily=Comic Sans MS;" parent="1" vertex="1">
          <mxGeometry x="208.25" y="355" width="99" height="30" as="geometry" />
        </mxCell>
        <mxCell id="KlWJ0E5zpvOS__4lGVaB-18" value="Baidu Adapter" style="rounded=0;whiteSpace=wrap;html=1;comic=1;fillColor=#dae8fc;strokeColor=#6c8ebf;fontSize=11;fontFamily=Comic Sans MS;" parent="1" vertex="1">
          <mxGeometry x="320" y="355" width="87.5" height="30" as="geometry" />
        </mxCell>
        <mxCell id="KlWJ0E5zpvOS__4lGVaB-20" value="Tencent&lt;br&gt;Navi" style="rounded=0;whiteSpace=wrap;html=1;comic=1;fillColor=#f5f5f5;strokeColor=#666666;fontSize=11;fontFamily=Comic Sans MS;fontColor=#333333;" parent="1" vertex="1">
          <mxGeometry x="104.5" y="410" width="95.5" height="30" as="geometry" />
        </mxCell>
        <mxCell id="KlWJ0E5zpvOS__4lGVaB-21" value="Amap&lt;br&gt;Navi" style="rounded=0;whiteSpace=wrap;html=1;comic=1;fillColor=#f5f5f5;strokeColor=#666666;fontSize=11;fontFamily=Comic Sans MS;fontColor=#333333;" parent="1" vertex="1">
          <mxGeometry x="209.25" y="410" width="101.75" height="30" as="geometry" />
        </mxCell>
        <mxCell id="KlWJ0E5zpvOS__4lGVaB-22" value="Baidu&lt;br&gt;Navi" style="rounded=0;whiteSpace=wrap;html=1;comic=1;fillColor=#f5f5f5;strokeColor=#666666;fontSize=11;fontFamily=Comic Sans MS;fontColor=#333333;" parent="1" vertex="1">
          <mxGeometry x="320" y="410" width="87.5" height="30" as="geometry" />
        </mxCell>
        <mxCell id="KlWJ0E5zpvOS__4lGVaB-24" value="导航" style="text;html=1;strokeColor=none;fillColor=none;align=center;verticalAlign=middle;whiteSpace=wrap;rounded=0;comic=1;fontFamily=Comic Sans MS;fontSize=16;fontStyle=1" parent="1" vertex="1">
          <mxGeometry x="230" y="260" width="50" height="20" as="geometry" />
        </mxCell>
        <mxCell id="07GgqiMLKD5ptPio6yUv-1" value="" style="rounded=0;whiteSpace=wrap;html=1;comic=1;fontFamily=Comic Sans MS;fontSize=16;fillColor=#fff2cc;strokeColor=#d6b656;" parent="1" vertex="1">
          <mxGeometry x="459" y="250" width="351" height="210" as="geometry" />
        </mxCell>
        <mxCell id="07GgqiMLKD5ptPio6yUv-2" value="Meituan Adapter" style="rounded=0;whiteSpace=wrap;html=1;comic=1;fillColor=#dae8fc;strokeColor=#6c8ebf;fontSize=11;fontFamily=Comic Sans MS;" parent="1" vertex="1">
          <mxGeometry x="483.5" y="355" width="66.5" height="30" as="geometry" />
        </mxCell>
        <mxCell id="07GgqiMLKD5ptPio6yUv-3" value="Map Interface" style="rounded=0;whiteSpace=wrap;html=1;comic=1;fillColor=#d5e8d4;strokeColor=#82b366;fontSize=11;fontFamily=Comic Sans MS;" parent="1" vertex="1">
          <mxGeometry x="483.5" y="290" width="306.5" height="45" as="geometry" />
        </mxCell>
        <mxCell id="07GgqiMLKD5ptPio6yUv-4" value="打车" style="rounded=0;whiteSpace=wrap;html=1;comic=1;fillColor=#ffe6cc;strokeColor=#d79b00;fontSize=16;fontFamily=Comic Sans MS;" parent="1" vertex="1">
          <mxGeometry x="80" y="150" width="350" height="60" as="geometry" />
        </mxCell>
        <mxCell id="07GgqiMLKD5ptPio6yUv-5" value="业务" style="text;html=1;strokeColor=none;fillColor=none;align=center;verticalAlign=middle;whiteSpace=wrap;rounded=0;comic=1;fontFamily=Comic Sans MS;fontSize=16;fontStyle=1" parent="1" vertex="1">
          <mxGeometry x="20" y="170" width="50" height="20" as="geometry" />
        </mxCell>
        <mxCell id="07GgqiMLKD5ptPio6yUv-6" value="其他" style="rounded=0;whiteSpace=wrap;html=1;comic=1;fillColor=#ffe6cc;strokeColor=#d79b00;fontSize=16;fontFamily=Comic Sans MS;" parent="1" vertex="1">
          <mxGeometry x="460" y="150" width="350" height="60" as="geometry" />
        </mxCell>
        <mxCell id="07GgqiMLKD5ptPio6yUv-7" value="Qcs" style="text;html=1;strokeColor=none;fillColor=none;align=center;verticalAlign=middle;whiteSpace=wrap;rounded=0;comic=1;fontFamily=Comic Sans MS;fontSize=16;fontStyle=1" parent="1" vertex="1">
          <mxGeometry x="20" y="330" width="50" height="20" as="geometry" />
        </mxCell>
        <mxCell id="07GgqiMLKD5ptPio6yUv-8" value="地图" style="text;html=1;strokeColor=none;fillColor=none;align=center;verticalAlign=middle;whiteSpace=wrap;rounded=0;comic=1;fontFamily=Comic Sans MS;fontSize=16;fontStyle=1" parent="1" vertex="1">
          <mxGeometry x="611.75" y="260" width="50" height="20" as="geometry" />
        </mxCell>
        <mxCell id="07GgqiMLKD5ptPio6yUv-9" value="Tencent Adapter" style="rounded=0;whiteSpace=wrap;html=1;comic=1;fillColor=#dae8fc;strokeColor=#6c8ebf;fontSize=11;fontFamily=Comic Sans MS;" parent="1" vertex="1">
          <mxGeometry x="560" y="355" width="66.5" height="30" as="geometry" />
        </mxCell>
        <mxCell id="07GgqiMLKD5ptPio6yUv-10" value="Amap Adapter" style="rounded=0;whiteSpace=wrap;html=1;comic=1;fillColor=#dae8fc;strokeColor=#6c8ebf;fontSize=11;fontFamily=Comic Sans MS;" parent="1" vertex="1">
          <mxGeometry x="639" y="355" width="66.5" height="30" as="geometry" />
        </mxCell>
        <mxCell id="07GgqiMLKD5ptPio6yUv-11" value="Baidu Adapter" style="rounded=0;whiteSpace=wrap;html=1;comic=1;fillColor=#dae8fc;strokeColor=#6c8ebf;fontSize=11;fontFamily=Comic Sans MS;" parent="1" vertex="1">
          <mxGeometry x="720" y="355" width="66.5" height="30" as="geometry" />
        </mxCell>
        <mxCell id="07GgqiMLKD5ptPio6yUv-12" value="Meituan&lt;br&gt;Map" style="rounded=0;whiteSpace=wrap;html=1;comic=1;fillColor=#f5f5f5;strokeColor=#666666;fontSize=11;fontFamily=Comic Sans MS;fontColor=#333333;" parent="1" vertex="1">
          <mxGeometry x="486.5" y="410" width="66.5" height="30" as="geometry" />
        </mxCell>
        <mxCell id="07GgqiMLKD5ptPio6yUv-13" value="Tencent&lt;br&gt;Map" style="rounded=0;whiteSpace=wrap;html=1;comic=1;fillColor=#f5f5f5;strokeColor=#666666;fontSize=11;fontFamily=Comic Sans MS;fontColor=#333333;" parent="1" vertex="1">
          <mxGeometry x="560" y="410" width="66.5" height="30" as="geometry" />
        </mxCell>
        <mxCell id="07GgqiMLKD5ptPio6yUv-14" value="Amap&lt;br&gt;Map" style="rounded=0;whiteSpace=wrap;html=1;comic=1;fillColor=#f5f5f5;strokeColor=#666666;fontSize=11;fontFamily=Comic Sans MS;fontColor=#333333;" parent="1" vertex="1">
          <mxGeometry x="641" y="410" width="66.5" height="30" as="geometry" />
        </mxCell>
        <mxCell id="07GgqiMLKD5ptPio6yUv-15" value="Baidu&lt;br&gt;Map" style="rounded=0;whiteSpace=wrap;html=1;comic=1;fillColor=#f5f5f5;strokeColor=#666666;fontSize=11;fontFamily=Comic Sans MS;fontColor=#333333;" parent="1" vertex="1">
          <mxGeometry x="720" y="410" width="66.5" height="30" as="geometry" />
        </mxCell>
        <mxCell id="07GgqiMLKD5ptPio6yUv-16" value="" style="rounded=0;whiteSpace=wrap;html=1;comic=1;fontFamily=Comic Sans MS;fontSize=16;fillColor=#dae8fc;strokeColor=#6c8ebf;" parent="1" vertex="1">
          <mxGeometry x="80" y="250" width="351" height="210" as="geometry" />
        </mxCell>
        <mxCell id="07GgqiMLKD5ptPio6yUv-17" value="Navi Interface" style="rounded=0;whiteSpace=wrap;html=1;comic=1;fillColor=#d5e8d4;strokeColor=#82b366;fontSize=11;fontFamily=Comic Sans MS;" parent="1" vertex="1">
          <mxGeometry x="104.5" y="290" width="306.5" height="45" as="geometry" />
        </mxCell>
        <mxCell id="07GgqiMLKD5ptPio6yUv-18" value="Tencent Adapter" style="rounded=0;whiteSpace=wrap;html=1;comic=1;fillColor=#dae8fc;strokeColor=#6c8ebf;fontSize=11;fontFamily=Comic Sans MS;" parent="1" vertex="1">
          <mxGeometry x="104.5" y="355" width="95.5" height="30" as="geometry" />
        </mxCell>
        <mxCell id="07GgqiMLKD5ptPio6yUv-19" value="Amap Adapter" style="rounded=0;whiteSpace=wrap;html=1;comic=1;fillColor=#dae8fc;strokeColor=#6c8ebf;fontSize=11;fontFamily=Comic Sans MS;" parent="1" vertex="1">
          <mxGeometry x="208.25" y="355" width="99" height="30" as="geometry" />
        </mxCell>
        <mxCell id="07GgqiMLKD5ptPio6yUv-20" value="Baidu Adapter" style="rounded=0;whiteSpace=wrap;html=1;comic=1;fillColor=#dae8fc;strokeColor=#6c8ebf;fontSize=11;fontFamily=Comic Sans MS;" parent="1" vertex="1">
          <mxGeometry x="320" y="355" width="87.5" height="30" as="geometry" />
        </mxCell>
        <mxCell id="07GgqiMLKD5ptPio6yUv-21" value="Tencent&lt;br&gt;Navi" style="rounded=0;whiteSpace=wrap;html=1;comic=1;fillColor=#f5f5f5;strokeColor=#666666;fontSize=11;fontFamily=Comic Sans MS;fontColor=#333333;" parent="1" vertex="1">
          <mxGeometry x="104.5" y="410" width="95.5" height="30" as="geometry" />
        </mxCell>
        <mxCell id="07GgqiMLKD5ptPio6yUv-22" value="Amap&lt;br&gt;Navi" style="rounded=0;whiteSpace=wrap;html=1;comic=1;fillColor=#f5f5f5;strokeColor=#666666;fontSize=11;fontFamily=Comic Sans MS;fontColor=#333333;" parent="1" vertex="1">
          <mxGeometry x="209.25" y="410" width="101.75" height="30" as="geometry" />
        </mxCell>
        <mxCell id="07GgqiMLKD5ptPio6yUv-23" value="Baidu&lt;br&gt;Navi" style="rounded=0;whiteSpace=wrap;html=1;comic=1;fillColor=#f5f5f5;strokeColor=#666666;fontSize=11;fontFamily=Comic Sans MS;fontColor=#333333;" parent="1" vertex="1">
          <mxGeometry x="320" y="410" width="87.5" height="30" as="geometry" />
        </mxCell>
        <mxCell id="07GgqiMLKD5ptPio6yUv-24" value="导航" style="text;html=1;strokeColor=none;fillColor=none;align=center;verticalAlign=middle;whiteSpace=wrap;rounded=0;comic=1;fontFamily=Comic Sans MS;fontSize=16;fontStyle=1" parent="1" vertex="1">
          <mxGeometry x="230" y="260" width="50" height="20" as="geometry" />
        </mxCell>
        <mxCell id="ZtP1YKtmyyB6F8w1WZnN-1" value="" style="rounded=0;whiteSpace=wrap;html=1;comic=1;fontFamily=Comic Sans MS;fontSize=16;fillColor=#eeeeee;strokeColor=#36393d;" vertex="1" parent="1">
          <mxGeometry x="79" y="500" width="731" height="300" as="geometry" />
        </mxCell>
        <mxCell id="ZtP1YKtmyyB6F8w1WZnN-2" value="Meituan Map" style="rounded=0;whiteSpace=wrap;html=1;comic=1;fillColor=#f5f5f5;strokeColor=#666666;fontColor=#333333;fontSize=16;fontFamily=Comic Sans MS;" vertex="1" parent="1">
          <mxGeometry x="204" y="700" width="120" height="60" as="geometry" />
        </mxCell>
        <mxCell id="ZtP1YKtmyyB6F8w1WZnN-3" value="Tencent Map" style="rounded=0;whiteSpace=wrap;html=1;comic=1;fillColor=#f5f5f5;strokeColor=#666666;fontColor=#333333;fontSize=16;fontFamily=Comic Sans MS;" vertex="1" parent="1">
          <mxGeometry x="354" y="700" width="120" height="60" as="geometry" />
        </mxCell>
        <mxCell id="ZtP1YKtmyyB6F8w1WZnN-4" value="Amap Map" style="rounded=0;whiteSpace=wrap;html=1;comic=1;fillColor=#f5f5f5;strokeColor=#666666;fontColor=#333333;fontSize=16;fontFamily=Comic Sans MS;" vertex="1" parent="1">
          <mxGeometry x="504" y="700" width="120" height="60" as="geometry" />
        </mxCell>
        <mxCell id="ZtP1YKtmyyB6F8w1WZnN-5" value="Baidu Map" style="rounded=0;whiteSpace=wrap;html=1;comic=1;fillColor=#f5f5f5;strokeColor=#666666;fontColor=#333333;fontSize=16;fontFamily=Comic Sans MS;" vertex="1" parent="1">
          <mxGeometry x="654" y="700" width="120" height="60" as="geometry" />
        </mxCell>
        <mxCell id="ZtP1YKtmyyB6F8w1WZnN-6" value="Meituan Adapter" style="rounded=0;whiteSpace=wrap;html=1;comic=1;fillColor=#dae8fc;strokeColor=#6c8ebf;fontSize=16;fontFamily=Comic Sans MS;" vertex="1" parent="1">
          <mxGeometry x="204" y="620" width="120" height="60" as="geometry" />
        </mxCell>
        <mxCell id="ZtP1YKtmyyB6F8w1WZnN-7" value="图商" style="text;html=1;strokeColor=none;fillColor=none;align=center;verticalAlign=middle;whiteSpace=wrap;rounded=0;comic=1;fontFamily=Comic Sans MS;fontSize=16;fontStyle=1" vertex="1" parent="1">
          <mxGeometry x="114" y="720" width="40" height="20" as="geometry" />
        </mxCell>
        <mxCell id="ZtP1YKtmyyB6F8w1WZnN-8" value="Tencent&lt;br&gt;Adapter" style="rounded=0;whiteSpace=wrap;html=1;comic=1;fillColor=#dae8fc;strokeColor=#6c8ebf;fontSize=16;fontFamily=Comic Sans MS;" vertex="1" parent="1">
          <mxGeometry x="354" y="620" width="120" height="60" as="geometry" />
        </mxCell>
        <mxCell id="ZtP1YKtmyyB6F8w1WZnN-9" value="AMap&lt;br&gt;Adapter" style="rounded=0;whiteSpace=wrap;html=1;comic=1;fillColor=#dae8fc;strokeColor=#6c8ebf;fontSize=16;fontFamily=Comic Sans MS;" vertex="1" parent="1">
          <mxGeometry x="504" y="620" width="120" height="60" as="geometry" />
        </mxCell>
        <mxCell id="ZtP1YKtmyyB6F8w1WZnN-10" value="Baidu&lt;br&gt;Adapter" style="rounded=0;whiteSpace=wrap;html=1;comic=1;fillColor=#dae8fc;strokeColor=#6c8ebf;fontSize=16;fontFamily=Comic Sans MS;" vertex="1" parent="1">
          <mxGeometry x="654" y="620" width="120" height="60" as="geometry" />
        </mxCell>
        <mxCell id="ZtP1YKtmyyB6F8w1WZnN-11" value="适配层" style="text;html=1;strokeColor=none;fillColor=none;align=center;verticalAlign=middle;whiteSpace=wrap;rounded=0;comic=1;fontFamily=Comic Sans MS;fontSize=16;fontStyle=1" vertex="1" parent="1">
          <mxGeometry x="114" y="640" width="50" height="20" as="geometry" />
        </mxCell>
        <mxCell id="ZtP1YKtmyyB6F8w1WZnN-12" value="统一 Interface" style="rounded=0;whiteSpace=wrap;html=1;comic=1;fillColor=#d5e8d4;strokeColor=#82b366;fontSize=16;fontFamily=Comic Sans MS;" vertex="1" parent="1">
          <mxGeometry x="204" y="540" width="570" height="60" as="geometry" />
        </mxCell>
        <mxCell id="ZtP1YKtmyyB6F8w1WZnN-13" value="接口层" style="text;html=1;strokeColor=none;fillColor=none;align=center;verticalAlign=middle;whiteSpace=wrap;rounded=0;comic=1;fontFamily=Comic Sans MS;fontSize=16;fontStyle=1" vertex="1" parent="1">
          <mxGeometry x="114" y="560" width="50" height="20" as="geometry" />
        </mxCell>
        <mxCell id="ZtP1YKtmyyB6F8w1WZnN-14" value="统一&lt;br&gt;地图" style="text;html=1;strokeColor=none;fillColor=none;align=center;verticalAlign=middle;whiteSpace=wrap;rounded=0;comic=1;fontFamily=Comic Sans MS;fontSize=16;fontStyle=1" vertex="1" parent="1">
          <mxGeometry x="11" y="640" width="58" height="20" as="geometry" />
        </mxCell>
      </root>
    </mxGraphModel>
  </diagram>
</mxfile>
